<svg width="616" height="214" viewBox="0 0 616 214" fill="none" xmlns="http://www.w3.org/2000/svg">
<rect x="105" y="67" width="160" height="113" fill="#D9D9D9"/>
<rect x="443" y="67" width="160" height="113" fill="#D9D9D9"/>
<rect x="165" y="115" width="40" height="65" fill="#384B61"/>
<rect x="503" y="115" width="40" height="65" fill="#384B61"/>
<path d="M185.5 0L265.607 71.25H105.393L185.5 0Z" fill="#4ECD5D"/>
<path d="M523.5 0L603.607 71.25H443.393L523.5 0Z" fill="#4ECD5D"/>
<rect x="105" y="67" width="160" height="9" fill="#A1ACAC"/>
<rect x="443" y="67" width="160" height="9" fill="#A1ACAC"/>
<rect x="97" y="67" width="8" height="110" fill="#A1ACAC"/>
<rect y="177" width="266" height="37" fill="#A6DAAC"/>
<rect x="338" y="177" width="266" height="37" fill="#A6DAAC"/>
<rect x="81" y="188" width="44" height="21" fill="#D9D9D9"/>
<rect x="407" y="138" width="36" height="39" fill="#A1ACAC"/>
<rect x="435" y="67" width="8" height="110" fill="#A1ACAC"/>
<rect x="85" y="192" width="4" height="11" fill="#A1ACAC"/>
<rect x="93" y="192" width="4" height="11" fill="#A1ACAC"/>
<rect x="101" y="192" width="4" height="11" fill="#A1ACAC"/>
<rect x="109" y="192" width="4" height="11" fill="#A1ACAC"/>
<rect x="117" y="192" width="4" height="11" fill="#A1ACAC"/>
</svg>
